{
  "accessors": [
    {
      "bufferView": 0,
      "componentType": 5126,
      "count": 344,
      "max": [
        0.4421098530292511,
        0.4273853600025177,
        0.4233053922653198
      ],
      "min": [
        -0.4421098530292511,
        -3.037794828414917,
        -0.4233054220676422
      ],
      "type": "VEC3"
    },
    {
      "bufferView": 1,
      "componentType": 5126,
      "count": 344,
      "type": "VEC3"
    },
    {
      "bufferView": 2,
      "componentType": 5126,
      "count": 344,
      "type": "VEC2"
    },
    {
      "bufferView": 3,
      "componentType": 5125,
      "count": 516,
      "type": "SCALAR"
    }
  ],
  "asset": {
    "generator": "Prisma3D Pro",
    "version": "2.0"
  },
  "bufferViews": [
    {
      "buffer": 0,
      "byteLength": 4128,
      "target": 34962
    },
    {
      "buffer": 1,
      "byteLength": 4128,
      "target": 34962
    },
    {
      "buffer": 2,
      "byteLength": 2752,
      "target": 34962
    },
    {
      "buffer": 3,
      "byteLength": 2064,
      "target": 34963
    }
  ],
  "buffers": [
    {
      "byteLength": 4128,
      "uri": "data:application/octet-stream;base64,"
    },
    {
      "byteLength": 4128,
      "uri": "data:application/octet-stream;base64,"
    },
    {
      "byteLength": 2752,
      "uri": "data:application/octet-stream;base64,"
    },
    {
      "byteLength": 2064,
      "uri": "data:application/octet-stream;base64,"
    }
  ],
  "materials": [
    {
      "doubleSided": true,
      "pbrMetallicRoughness": {
        "metallicFactor": 0.0,
        "roughnessFactor": 0.0
      }
    }
  ],
  "meshes": [
    {
      "primitives": [
        {
          "attributes": {
            "NORMAL": 1,
            "POSITION": 0,
            "TEXCOORD_0": 2
          },
          "indices": 3,
          "material": 0,
          "mode": 4
        }
      ]
    }
  ],
  "nodes": [
    {
      "mesh": 0,
      "name": "Cubo",
      "rotation": [
        0.0,
        -0.0,
        -0.0,
        1.0
      ],
      "scale": [
        1.0,
        1.0,
        1.0
      ],
      "translation": [
        0.02838420867919922,
        0.09817862510681152,
        0.008644640445709229
      ]
    }
  ],
  "scenes": [
    {
      "nodes": [
        0
      ]
    }
  ]
}
