{
  "accessors": [
    {
      "bufferView": 0,
      "componentType": 5126,
      "count": 47232,
      "max": [
        0.5015296936035156,
        0.354660302400589,
        0.3105580508708954
      ],
      "min": [
        -0.5015296936035156,
        -0.3669649660587311,
        -0.2938772141933441
      ],
      "type": "VEC3"
    },
    {
      "bufferView": 1,
      "componentType": 5126,
      "count": 47232,
      "type": "VEC3"
    },
    {
      "bufferView": 2,
      "componentType": 5126,
      "count": 47232,
      "type": "VEC2"
    },
    {
      "bufferView": 3,
      "componentType": 5125,
      "count": 47232,
      "type": "SCALAR"
    }
  ],
  "asset": {
    "generator": "Prisma3D Pro",
    "version": "2.0"
  },
  "bufferViews": [
    {
      "buffer": 0,
      "byteLength": 566784,
      "target": 34962
    },
    {
      "buffer": 1,
      "byteLength": 566784,
      "target": 34962
    },
    {
      "buffer": 2,
      "byteLength": 377856,
      "target": 34962
    },
    {
      "buffer": 3,
      "byteLength": 188928,
      "target": 34963
    }
  ],
  "buffers": [
    {
      "byteLength": 566784,
      "uri": "data:application/octet-stream;base64,"
    },
    {
      "byteLength": 566784,
      "uri": "data:application/octet-stream;base64,"
    },
    {
      "byteLength": 377856,
      "uri": "data:application/octet-stream;base64,"
    },
    {
      "byteLength": 188928,
      "uri": "data:application/octet-stream;base64,"
    }
  ],
  "materials": [
    {
      "doubleSided": true,
      "pbrMetallicRoughness": {
        "metallicFactor": 0.0,
        "roughnessFactor": 0.0
      }
    }
  ],
  "meshes": [
    {
      "primitives": [
        {
          "attributes": {
            "NORMAL": 1,
            "POSITION": 0,
            "TEXCOORD_0": 2
          },
          "indices": 3,
          "material": 0,
          "mode": 4
        }
      ]
    }
  ],
  "nodes": [
    {
      "children": [
        1
      ],
      "name": "scene",
      "rotation": [
        0.0,
        -0.0,
        -0.0,
        1.0
      ],
      "scale": [
        1.0,
        1.0,
        1.0
      ],
      "translation": [
        -0.0,
        0.0,
        0.0
      ]
    },
    {
      "children": [
        2
      ],
      "name": "Sketchfab_Scene",
      "rotation": [
        0.0,
        -0.0,
        -0.0,
        1.0
      ],
      "scale": [
        1.0,
        1.0,
        1.0
      ],
      "translation": [
        -0.0,
        0.0,
        0.0
      ]
    },
    {
      "children": [
        3
      ],
      "name": "Sketchfab_model",
      "rotation": [
        0.7071068286895752,
        -0.0,
        -0.0,
        -0.7071068286895752
      ],
      "scale": [
        1.0,
        1.0,
        1.0
      ],
      "translation": [
        -0.0,
        0.0,
        0.0
      ]
    },
    {
      "children": [
        4
      ],
      "name": "root",
      "rotation": [
        0.0,
        -0.0,
        -0.0,
        1.0
      ],
      "scale": [
        1.0,
        1.0,
        1.0
      ],
      "translation": [
        -0.0,
        0.0,
        0.0
      ]
    },
    {
      "children": [
        5
      ],
      "name": "GLTF_SceneRootNode",
      "rotation": [
        0.7071068286895752,
        -0.0,
        -0.0,
        0.7071068286895752
      ],
      "scale": [
        1.0,
        1.0,
        1.0
      ],
      "translation": [
        -0.0,
        0.0,
        0.0
      ]
    },
    {
      "children": [
        6
      ],
      "name": "Suzanne_2",
      "rotation": [
        0.28104740381240845,
        -0.0,
        -0.0,
        -0.9596939086914063
      ],
      "scale": [
        1.0,
        1.0,
        1.0
      ],
      "translation": [
        -0.0,
        0.0,
        0.0
      ]
    },
    {
      "mesh": 0,
      "name": "Object_4",
      "rotation": [
        0.0,
        -0.0,
        -0.0,
        1.0
      ],
      "scale": [
        1.0,
        1.0,
        1.0
      ],
      "translation": [
        -0.0,
        0.0,
        0.0
      ]
    }
  ],
  "scenes": [
    {
      "nodes": [
        0
      ]
    }
  ]
}
