{
  "accessors": [
    {
      "bufferView": 0,
      "componentType": 5126,
      "count": 3072,
      "max": [
        1.1088579893112183,
        1.1210910081863403,
        6.639999866485596
      ],
      "min": [
        -1.2280210256576538,
        -1.1335539817810059,
        0.0
      ],
      "type": "VEC3"
    },
    {
      "bufferView": 1,
      "componentType": 5126,
      "count": 3072,
      "type": "VEC3"
    },
    {
      "bufferView": 2,
      "componentType": 5126,
      "count": 3072,
      "type": "VEC2"
    },
    {
      "bufferView": 3,
      "componentType": 5125,
      "count": 6144,
      "type": "SCALAR"
    }
  ],
  "asset": {
    "generator": "Prisma3D Pro",
    "version": "2.0"
  },
  "bufferViews": [
    {
      "buffer": 0,
      "byteLength": 36864,
      "target": 34962
    },
    {
      "buffer": 1,
      "byteLength": 36864,
      "target": 34962
    },
    {
      "buffer": 2,
      "byteLength": 24576,
      "target": 34962
    },
    {
      "buffer": 3,
      "byteLength": 24576,
      "target": 34963
    }
  ],
  "buffers": [
    {
      "byteLength": 36864,
      "uri": "data:application/octet-stream;base64,"
    },
    {
      "byteLength": 36864,
      "uri": "data:application/octet-stream;base64,"
    },
    {
      "byteLength": 24576,
      "uri": "data:application/octet-stream;base64,"
    },
    {
      "byteLength": 24576,
      "uri": "data:application/octet-stream;base64,"
    }
  ],
  "images": [
    {
      "name": "tree.png",
      "uri": "data:image/png;base64,"
    }
  ],
  "materials": [
    {
      "doubleSided": true,
      "pbrMetallicRoughness": {
        "baseColorTexture": {
          "index": 0
        },
        "metallicFactor": 0.0,
        "roughnessFactor": 0.0
      }
    }
  ],
  "meshes": [
    {
      "primitives": [
        {
          "attributes": {
            "NORMAL": 1,
            "POSITION": 0,
            "TEXCOORD_0": 2
          },
          "indices": 3,
          "material": 0,
          "mode": 4
        }
      ]
    }
  ],
  "nodes": [
    {
      "children": [
        1
      ],
      "name": "stylize_tree_lowpoly",
      "rotation": [
        0.0,
        -0.0,
        -0.0,
        1.0
      ],
      "scale": [
        1.0,
        1.0,
        1.0
      ],
      "translation": [
        -0.0,
        0.0,
        0.0
      ]
    },
    {
      "children": [
        2
      ],
      "name": "Sketchfab_Scene",
      "rotation": [
        0.0,
        -0.0,
        -0.0,
        1.0
      ],
      "scale": [
        1.0,
        1.0,
        1.0
      ],
      "translation": [
        -0.0,
        0.0,
        0.0
      ]
    },
    {
      "children": [
        3
      ],
      "name": "Sketchfab_model",
      "rotation": [
        0.7071068286895752,
        -0.0,
        -0.0,
        -0.7071068286895752
      ],
      "scale": [
        1.0,
        1.0,
        1.0
      ],
      "translation": [
        -0.0,
        0.0,
        0.0
      ]
    },
    {
      "children": [
        4
      ],
      "name": "b7e1a2fa27ff443aa36094e9d642addd.obj.cleaner.materialmerger.gles",
      "rotation": [
        0.0,
        -0.0,
        -0.0,
        1.0
      ],
      "scale": [
        1.0,
        1.0,
        1.0
      ],
      "translation": [
        -0.0,
        0.0,
        0.0
      ]
    },
    {
      "mesh": 0,
      "name": "Object_2",
      "rotation": [
        0.0,
        -0.0,
        -0.0,
        1.0
      ],
      "scale": [
        1.0,
        1.0,
        1.0
      ],
      "translation": [
        -0.0,
        0.0,
        0.0
      ]
    }
  ],
  "scenes": [
    {
      "nodes": [
        0
      ]
    }
  ],
  "textures": [
    {
      "source": 0
    }
  ]
}
