{
  "accessors": [
    {
      "bufferView": 0,
      "componentType": 5126,
      "count": 441,
      "max": [
        0.3793245851993561,
        0.599807620048523,
        1.090122103691101
      ],
      "min": [
        -0.3535406291484833,
        -0.5227154493331909,
        0.0015551036922261119
      ],
      "type": "VEC3"
    },
    {
      "bufferView": 1,
      "componentType": 5126,
      "count": 441,
      "type": "VEC3"
    },
    {
      "bufferView": 2,
      "componentType": 5126,
      "count": 441,
      "type": "VEC2"
    },
    {
      "bufferView": 3,
      "componentType": 5125,
      "count": 441,
      "type": "SCALAR"
    }
  ],
  "asset": {
    "generator": "Prisma3D Pro",
    "version": "2.0"
  },
  "bufferViews": [
    {
      "buffer": 0,
      "byteLength": 5292,
      "target": 34962
    },
    {
      "buffer": 1,
      "byteLength": 5292,
      "target": 34962
    },
    {
      "buffer": 2,
      "byteLength": 3528,
      "target": 34962
    },
    {
      "buffer": 3,
      "byteLength": 1764,
      "target": 34963
    }
  ],
  "buffers": [
    {
      "byteLength": 5292,
      "uri": "data:application/octet-stream;base64,"
    },
    {
      "byteLength": 5292,
      "uri": "data:application/octet-stream;base64,"
    },
    {
      "byteLength": 3528,
      "uri": "data:application/octet-stream;base64,"
    },
    {
      "byteLength": 1764,
      "uri": "data:application/octet-stream;base64,"
    }
  ],
  "images": [
    {
      "name": "Material_baseColor.png",
      "uri": "data:image/png;base64,"
    }
  ],
  "materials": [
    {
      "doubleSided": true,
      "pbrMetallicRoughness": {
        "baseColorTexture": {
          "index": 0
        },
        "metallicFactor": 0.0,
        "roughnessFactor": 0.0
      }
    }
  ],
  "meshes": [
    {
      "primitives": [
        {
          "attributes": {
            "NORMAL": 1,
            "POSITION": 0,
            "TEXCOORD_0": 2
          },
          "indices": 3,
          "material": 0,
          "mode": 4
        }
      ]
    }
  ],
  "nodes": [
    {
      "mesh": 0,
      "name": "lp2_Material_0",
      "rotation": [
        0.7069846987724304,
        1.4903735134907947e-08,
        1.4898589917322624e-08,
        -0.7072288393974304
      ],
      "scale": [
        1.0,
        1.0,
        1.0
      ],
      "translation": [
        -0.015202641487121582,
        -5.248474010954851e-08,
        2.7000623958883807e-13
      ]
    }
  ],
  "scenes": [
    {
      "nodes": [
        0
      ]
    }
  ],
  "textures": [
    {
      "source": 0
    }
  ]
}
